<svg width="12" height="12" viewBox="0 0 12 12" fill="none" xmlns="http://www.w3.org/2000/svg">
<path d="M1.33333 12H10.6667C11.402 12 12 11.402 12 10.6667V3.33333C12.0001 3.24578 11.9829 3.15906 11.9494 3.07818C11.9158 2.99729 11.8667 2.92383 11.8047 2.862L9.138 0.195334C9.0762 0.133306 9.00273 0.0841138 8.92184 0.0505903C8.84095 0.0170668 8.75423 -0.000126299 8.66667 6.98449e-07H1.33333C0.598 6.98449e-07 0 0.598001 0 1.33333V10.6667C0 11.402 0.598 12 1.33333 12ZM8 10.6667H4V7.33333H8V10.6667ZM6.66667 2.66667H5.33333V1.33333H6.66667V2.66667ZM1.33333 1.33333H2.66667V4H8V1.33333H8.39067L10.6667 3.60933L10.6673 10.6667H9.33333V7.33333C9.33333 6.598 8.73533 6 8 6H4C3.26467 6 2.66667 6.598 2.66667 7.33333V10.6667H1.33333V1.33333Z" fill="white"/>
</svg>
