<svg width="14" height="8" viewBox="0 0 14 8" fill="none" xmlns="http://www.w3.org/2000/svg">
<path d="M1.63202 4.87867C1.57233 5.04161 1.45146 5.17486 1.29509 5.25011C1.13873 5.32535 0.959179 5.33666 0.794604 5.28163C0.63003 5.2266 0.493399 5.10956 0.413743 4.95539C0.334087 4.80122 0.317683 4.62207 0.368017 4.456C0.354684 4.496 0.368017 4.45467 0.368017 4.45467C0.391792 4.38128 0.419385 4.30918 0.450684 4.23867C0.504017 4.112 0.582684 3.93733 0.690684 3.73067C0.90935 3.31733 1.25335 2.76667 1.75735 2.216C2.78002 1.10267 4.45068 0 7.00002 0C9.55068 0 11.2213 1.10267 12.2413 2.216C12.7859 2.81321 13.2275 3.49674 13.548 4.23867C13.5747 4.30133 13.5947 4.352 13.608 4.38933C13.6133 4.4 13.6267 4.46933 13.64 4.536C13.652 4.59733 13.6627 4.656 13.6667 4.66667C13.6667 4.66667 13.7787 5.11067 13.2107 5.29867C13.0434 5.35453 12.8608 5.34183 12.7029 5.26337C12.5449 5.1849 12.4245 5.04705 12.368 4.88V4.876L12.3587 4.85467C12.2917 4.68339 12.2151 4.51601 12.1293 4.35333C11.8927 3.9061 11.6001 3.49077 11.2587 3.11733C10.4453 2.23067 9.11602 1.33333 7.00002 1.33333C4.88402 1.33333 3.55468 2.23067 2.74135 3.11733C2.301 3.60009 1.94291 4.15188 1.68135 4.75067C1.66735 4.78508 1.65402 4.81975 1.64135 4.85467L1.63202 4.87867Z" fill="#5F5F5F"/>
<path d="M4.3335 5.33335C4.3335 4.62611 4.61445 3.94783 5.11454 3.44774C5.61464 2.94764 6.29292 2.66669 7.00016 2.66669C7.70741 2.66669 8.38568 2.94764 8.88578 3.44774C9.38588 3.94783 9.66683 4.62611 9.66683 5.33335C9.66683 6.0406 9.38588 6.71887 8.88578 7.21897C8.38568 7.71907 7.70741 8.00002 7.00016 8.00002C6.29292 8.00002 5.61464 7.71907 5.11454 7.21897C4.61445 6.71887 4.3335 6.0406 4.3335 5.33335Z" fill="#5F5F5F"/>
</svg>
